<svg xmlns="http://www.w3.org/2000/svg" width="512" height="512" viewBox="0 0 512 512"><rect width="512" height="512" rx="112" fill="#0a0a0b"/><path transform="translate(108.40 96.69) scale(1.0295)" d="M 125.677 31.246 C 115.934 48.436, 102.397 72.175, 95.595 84 L 83.227 105.500 113.612 135.996 L 143.996 166.492 173.998 136.502 C 190.499 120.008, 204 106.213, 204 105.846 C 204 105.479, 195.536 90.402, 185.190 72.340 C 174.845 54.278, 161.500 30.950, 155.536 20.500 C 149.572 10.050, 144.400 1.161, 144.042 0.746 C 143.684 0.331, 135.420 14.056, 125.677 31.246 M 140.539 35.327 C 138.955 38.172, 135.782 43.650, 133.489 47.500 C 131.195 51.350, 123.113 65.463, 115.530 78.862 L 101.742 103.225 122.612 124.112 C 134.091 135.601, 143.936 144.932, 144.491 144.848 C 145.046 144.765, 154.651 135.377, 165.836 123.986 L 186.173 103.275 166.943 69.888 C 156.367 51.524, 146.748 35.072, 145.567 33.327 L 143.420 30.153 140.539 35.327 M 129.472 69.250 C 121.914 82.588, 114.667 95.178, 113.366 97.229 C 112.065 99.279, 111 101.309, 111 101.740 C 111 102.170, 118.427 109.939, 127.504 119.004 L 144.008 135.485 160.659 118.833 L 177.311 102.182 165.514 81.841 C 150.748 56.382, 143.959 45, 143.539 45 C 143.360 45, 137.029 55.913, 129.472 69.250 M 60.925 142.476 C 44.767 170.761, 37.068 184.405, 18.305 218 C 9.243 234.225, 1.362 248.063, 0.792 248.750 L -0.245 250 67.384 250 L 135.013 250 134.572 234.750 C 134.329 226.363, 134.090 211.625, 134.041 202 L 133.951 184.500 103.150 153.488 L 72.349 122.475 60.925 142.476 M 183.750 153.435 L 153 184.826 153 217.413 L 153 250 220 250 L 287 250 287 249.080 C 287 247.824, 270.385 218.119, 237 159.689 C 225.175 138.993, 215.275 122.056, 215 122.052 C 214.725 122.047, 200.662 136.170, 183.750 153.435 M 71.084 154.761 C 64.262 166.716, 28.468 230.218, 27.124 232.750 L 25.930 235 72.465 235 L 119 235 119 212.241 L 119 189.483 97.741 168.241 C 86.049 156.559, 76.262 147.005, 75.991 147.011 C 75.721 147.016, 73.513 150.504, 71.084 154.761 M 190.241 168.259 L 169 189.517 169 212.259 L 169 235 215.607 235 L 262.214 235 261.639 233.501 C 259.954 229.111, 212.839 147, 212.004 147 C 211.717 147, 201.924 156.566, 190.241 168.259 M 74.930 162.137 C 73.746 164.458, 68.483 173.815, 63.235 182.929 C 57.987 192.043, 51.338 203.775, 48.460 209 C 45.581 214.225, 42.012 220.637, 40.527 223.250 L 37.829 228 74.915 228 L 112 228 112 209.681 L 112 191.363 94.542 174.639 L 77.084 157.916 74.930 162.137 M 192.628 175.045 L 175 192.234 175 210.117 L 175 228 212.967 228 L 250.934 228 245.621 218.750 C 242.699 213.662, 233.866 198.250, 225.993 184.500 C 218.119 170.750, 211.357 159.130, 210.966 158.678 L 210.255 157.855 192.628 175.045 M 135 264.594 C 128.052 267.604, 122.700 274.772, 121.419 282.782 L 120.785 286.748 122.397 292.293 L 124.009 297.838 128.445 301.743 L 132.882 305.648 136.807 306.824 C 144.625 309.166, 152.714 307.608, 159.466 302.458 L 162.899 299.839 165.050 295.397 L 167.200 290.955 167.200 285.134 L 167.200 279.312 165.192 275.406 C 162.643 270.449, 158.529 266.536, 153.782 264.553 L 150.064 263 144.282 263.039 L 138.500 263.078 135 264.594" fill="#f4f3ef" fill-rule="evenodd"/></svg>